<svg xmlns="http://www.w3.org/2000/svg" width="880" height="380" viewBox="0 0 880 380" role="img" aria-labelledby="title desc">
  <title id="title">Carry the work forward</title>
  <desc id="desc">A conversation timeline holds the task, constraints, and progress. Better Fork loads its public history into your current chat while the source stays intact. The receiver keeps its model and workspace.</desc>
  <style>
    text{font-family:Arial,Helvetica,sans-serif;fill:#e6edf3}.title{font-size:30px;font-weight:700}.label{font-size:12px;letter-spacing:1.5px;fill:#a2b5bf}.body{font-size:16px}.small{font-size:13px;fill:#a2b5bf}.teal{fill:#54d4c7}.mono{font:14px 'DejaVu Sans Mono',monospace;fill:#54d4c7}
  </style>
  <rect width="880" height="380" rx="20" fill="#101b24"/>
  <text class="label" x="36" y="36">BETTER FORK / CONTINUITY</text>
  <text class="title" x="36" y="78">Carry the work forward.</text>
  <text class="small" x="36" y="107">One session ID connects the conversation so far to what you do next.</text>
  <path d="M58 185H818" fill="none" stroke="#47616f" stroke-width="4" stroke-linecap="round"/>
  <path d="M408 185C465 185 459 286 528 286H811" fill="none" stroke="#54d4c7" stroke-width="5" stroke-linecap="round"/>
  <path d="m802 278 10 8-10 8" fill="none" stroke="#54d4c7" stroke-width="3"/>
  <g fill="#101b24" stroke="#8aa4b2" stroke-width="3"><circle cx="68" cy="185" r="8"/><circle cx="223" cy="185" r="8"/><circle cx="378" cy="185" r="8"/></g>
  <text class="body" x="50" y="157">Task</text><text class="body" x="181" y="157">Constraints</text><text class="body" x="346" y="157">Progress</text>
  <text class="small" x="36" y="222">Claude Code · Codex</text>
  <text class="small" x="604" y="173">Source stays intact</text>
  <rect x="516" y="221" width="306" height="45" rx="22" fill="#173e42"/>
  <text class="mono" x="669" y="249" text-anchor="middle">$fork YOUR_SESSION_ID</text>
  <circle cx="554" cy="286" r="9" fill="#54d4c7" stroke="#101b24" stroke-width="3"/>
  <text class="body teal" x="533" y="321">Your current chat, ready to continue</text>
  <text class="small" x="533" y="346">Same selected model. Same workspace.</text>
  <text class="small" x="36" y="346">Public conversation text only.</text>
</svg>
